<svg width="25" height="25" viewBox="0 0 25 25" fill="none" xmlns="http://www.w3.org/2000/svg">
<path d="M24.6711 14.0625C24.5838 14.0625 24.5001 14.1037 24.4385 14.1769C24.3768 14.2502 24.3421 14.3495 24.3421 14.4531V23.8281C24.3421 23.9317 24.3074 24.0311 24.2458 24.1043C24.1841 24.1776 24.1004 24.2188 24.0132 24.2188H0.986842C0.8996 24.2188 0.815931 24.1776 0.754241 24.1043C0.692552 24.0311 0.657895 23.9317 0.657895 23.8281V14.4531C0.657895 14.3495 0.623238 14.2502 0.561548 14.1769C0.499859 14.1037 0.41619 14.0625 0.328947 14.0625C0.241705 14.0625 0.158036 14.1037 0.0963465 14.1769C0.0346569 14.2502 0 14.3495 0 14.4531L0 23.8281C0 24.4742 0.442763 25 0.986842 25H24.0132C24.5572 25 25 24.4742 25 23.8281V14.4531C25 14.3495 24.9653 14.2502 24.9037 14.1769C24.842 14.1037 24.7583 14.0625 24.6711 14.0625ZM16.7763 3.90625C16.8636 3.90625 16.9472 3.86509 17.0089 3.79184C17.0706 3.71858 17.1053 3.61923 17.1053 3.51562V1.17188C17.1053 0.525781 16.6625 0 16.1184 0H8.88158C8.3375 0 7.89474 0.525781 7.89474 1.17188V3.51562C7.89474 3.61923 7.92939 3.71858 7.99108 3.79184C8.05277 3.86509 8.13644 3.90625 8.22368 3.90625C8.31093 3.90625 8.3946 3.86509 8.45629 3.79184C8.51797 3.71858 8.55263 3.61923 8.55263 3.51562V1.17188C8.55263 1.06827 8.58729 0.968918 8.64898 0.895661C8.71067 0.822405 8.79434 0.78125 8.88158 0.78125H16.1184C16.2057 0.78125 16.2893 0.822405 16.351 0.895661C16.4127 0.968918 16.4474 1.06827 16.4474 1.17188V3.51562C16.4474 3.61923 16.482 3.71858 16.5437 3.79184C16.6054 3.86509 16.6891 3.90625 16.7763 3.90625Z" stroke="#000000" fill="none"/>
<path d="M24.0132 5.46875H0.986842C0.442763 5.46875 0 5.99453 0 6.64062V10.5141C0 12.6844 6.22105 15.5922 12.5822 15.5922C18.8605 15.5922 25 12.6844 25 10.5141V6.64062C25 5.99453 24.5572 5.46875 24.0132 5.46875ZM24.3421 10.5141C24.3421 11.8922 18.7783 14.8109 12.5822 14.8109C6.29934 14.8109 0.657895 11.893 0.657895 10.5141V6.64062C0.657895 6.53702 0.692552 6.43767 0.754241 6.36441C0.815931 6.29115 0.8996 6.25 0.986842 6.25H24.0132C24.1004 6.25 24.1841 6.29115 24.2458 6.36441C24.3074 6.43767 24.3421 6.53702 24.3421 6.64062V10.5141ZM12.5822 17.9688C13.2026 17.9688 13.8474 17.9383 14.4993 17.8781C14.5424 17.8741 14.5844 17.86 14.6229 17.8367C14.6614 17.8134 14.6956 17.7813 14.7236 17.7422C14.7517 17.7032 14.773 17.658 14.7863 17.6092C14.7996 17.5604 14.8047 17.509 14.8013 17.4578C14.7988 17.4063 14.7875 17.3559 14.7682 17.3097C14.7488 17.2635 14.7218 17.2224 14.6887 17.1889C14.6557 17.1554 14.6172 17.1302 14.5758 17.1148C14.5343 17.0994 14.4906 17.0941 14.4474 17.0992C13.1224 17.2219 11.8757 17.2164 10.5533 17.0836C10.4679 17.0781 10.3841 17.1124 10.3196 17.1791C10.2551 17.2458 10.215 17.3396 10.2079 17.4408C10.2007 17.542 10.2269 17.6425 10.2811 17.7211C10.3353 17.7997 10.4131 17.8501 10.498 17.8617C11.2059 17.9328 11.9072 17.9688 12.5822 17.9688Z" stroke="#000" fill="none"/>
</svg>
