<svg width="27" height="26" className="cryptoSvg" viewBox="0 0 27 26" fill="none" xmlns="http://www.w3.org/2000/svg">
<path d="M18.5 14.3331C18.5 14.8636 18.6975 15.3723 19.0492 15.7473C19.4008 16.1224 19.8777 16.3331 20.375 16.3331C20.8723 16.3331 21.3492 16.1224 21.7008 15.7473C22.0525 15.3723 22.25 14.8636 22.25 14.3331C22.25 13.8027 22.0525 13.294 21.7008 12.9189C21.3492 12.5438 20.8723 12.3331 20.375 12.3331C19.8777 12.3331 19.4008 12.5438 19.0492 12.9189C18.6975 13.294 18.5 13.8027 18.5 14.3331Z" stroke="#282828" stroke-width="1.1" stroke-linecap="round" stroke-linejoin="round"/>
<path d="M12.25 22.3333H18.5C22.035 22.3333 23.8038 22.3333 24.9013 21.1613C26 19.9907 26 18.104 26 14.3333V13C26 9.22933 26 7.34267 24.9013 6.172C24.1 5.316 22.9412 5.08533 21 5.02267M21 5.02267C20.2813 5 19.455 5 18.5 5H11M21 5.02267C21 3.76 21 3.12667 20.8038 2.62933C20.5504 1.98905 20.0728 1.47955 19.4725 1.20933C19.0062 1 18.4137 1 17.2287 1H11C6.28625 1 3.93 1.00133 2.465 2.56267C1 4.124 1 5.30533 1 10.3333M2.40625 23V15M4.75 15V13M4.75 25V23M2.40625 19H7.09375M7.09375 19C7.87 19 8.5 19.672 8.5 20.5V21.5C8.5 22.328 7.87 23 7.09375 23H1M7.09375 19C7.87 19 8.5 18.328 8.5 17.5V16.5C8.5 15.672 7.87 15 7.09375 15H1" stroke="#282828" stroke-width="1.1" stroke-linecap="round" stroke-linejoin="round"/>
</svg>
