<svg width="16" height="19" viewBox="0 0 16 19" fill="none" xmlns="http://www.w3.org/2000/svg">
<path d="M10.885 15.231C10.3003 15.231 9.80167 15.0243 9.389 14.611C8.97633 14.1977 8.76967 13.6993 8.769 13.116C8.76833 12.5327 8.975 12.0337 9.389 11.619C9.803 11.2043 10.3017 10.998 10.885 11C11.4683 11.002 11.967 11.2087 12.381 11.62C12.795 12.0313 13.0013 12.53 13 13.116C12.9987 13.702 12.792 14.2007 12.38 14.612C11.968 15.0233 11.4697 15.2297 10.885 15.231ZM1.615 18.231C1.155 18.231 0.771 18.077 0.463 17.769C0.155 17.461 0.000666667 17.0767 0 16.616V3.84601C0 3.38601 0.154333 3.00201 0.463 2.69401C0.771667 2.38601 1.156 2.23167 1.616 2.23101H3.385V0.539007C3.385 0.383674 3.436 0.255007 3.538 0.153007C3.64 0.0510068 3.76833 6.89657e-06 3.923 6.89657e-06C4.07767 6.89657e-06 4.20633 0.0510068 4.309 0.153007C4.41167 0.255007 4.46267 0.383674 4.462 0.539007V2.23101H11.616V0.501007C11.616 0.35834 11.6637 0.239007 11.759 0.143007C11.8543 0.0470068 11.9733 -0.00065977 12.116 6.89657e-06C12.2587 0.000673563 12.3773 0.0483401 12.472 0.143007C12.5667 0.237673 12.6147 0.356674 12.616 0.500007V2.23101H14.385C14.845 2.23101 15.2293 2.38534 15.538 2.69401C15.8467 3.00267 16.0007 3.38701 16 3.84701V16.616C16 17.076 15.846 17.4603 15.538 17.769C15.23 18.0777 14.8453 18.2317 14.384 18.231H1.615ZM1.615 17.231H14.385C14.5383 17.231 14.6793 17.167 14.808 17.039C14.9367 16.911 15.0007 16.7697 15 16.615V7.84701H1V16.616C1 16.7693 1.064 16.9103 1.192 17.039C1.32 17.1677 1.461 17.2317 1.615 17.231Z" fill="#C37D16"/>
</svg>
