<svg width="22" height="22" viewBox="0 0 22 22" fill="none" xmlns="http://www.w3.org/2000/svg">
<path d="M10.007 20.731H8.605C5.02 20.731 3.228 20.731 2.114 19.596C1 18.461 1 16.634 1 12.981C1 9.32796 1 7.50096 2.114 6.36596C3.228 5.23096 5.02 5.23096 8.605 5.23096H12.408C15.993 5.23096 17.786 5.23096 18.9 6.36596C19.757 7.23896 19.954 8.52196 20 10.731V12.231" stroke="#E06847" stroke-width="1.5" stroke-linecap="round" stroke-linejoin="round"/>
<path d="M18 17.731H15M15 20.731C14.2044 20.731 13.4413 20.4149 12.8787 19.8523C12.3161 19.2897 12 18.5266 12 17.731C12 16.9353 12.3161 16.1722 12.8787 15.6096C13.4413 15.047 14.2044 14.731 15 14.731M18 20.731C18.7956 20.731 19.5587 20.4149 20.1213 19.8523C20.6839 19.2897 21 18.5266 21 17.731C21 16.9353 20.6839 16.1722 20.1213 15.6096C19.5587 15.047 18.7956 14.731 18 14.731M15 5.23096L14.9 4.92096C14.405 3.38096 14.158 2.61096 13.569 2.17096C12.979 1.73096 12.197 1.73096 10.631 1.73096H10.368C8.803 1.73096 8.02 1.73096 7.431 2.17096C6.841 2.61096 6.594 3.38096 6.099 4.92096L6 5.23096" stroke="#E06847" stroke-width="1.5" stroke-linecap="round" stroke-linejoin="round"/>
</svg>
