<svg width="22" height="29" viewBox="0 0 22 29" fill="none" xmlns="http://www.w3.org/2000/svg">
<path opacity="0.5" d="M8.14264 24.625H13.8569M9.0955 28H12.9041" stroke="#282828" stroke-width="1.3" stroke-linecap="round"/>
<path d="M4.44286 16.768L6.02143 18.172C6.46429 18.5649 6.71429 19.1143 6.71429 19.6881C6.71429 20.5507 7.45429 21.25 8.36714 21.25H13.6329C14.5457 21.25 15.2857 20.5507 15.2857 19.6881C15.2857 19.1143 15.5371 18.5649 15.9786 18.172L17.5557 16.768C19.7586 14.7957 20.9871 12.2023 20.9986 9.5077L21 9.3943C21 4.78945 16.5229 1 11 1C5.47714 1 1 4.78945 1 9.3943V9.5077C1.01286 12.2023 2.24286 14.7943 4.44286 16.768Z" stroke="#282828" stroke-width="1.3"/>
</svg>
