<svg width="21" height="19" viewBox="0 0 21 19" fill="none" xmlns="http://www.w3.org/2000/svg">
<path d="M12.5393 6.32911C12.9255 6.32911 13.2958 6.19032 13.5689 5.94327C13.8419 5.69623 13.9953 5.36116 13.9953 5.01178C13.9953 4.6624 13.8419 4.32733 13.5689 4.08028C13.2958 3.83323 12.9255 3.69444 12.5393 3.69444C12.1532 3.69444 11.7828 3.83323 11.5098 4.08028C11.2367 4.32733 11.0833 4.6624 11.0833 5.01178C11.0833 5.36116 11.2367 5.69623 11.5098 5.94327C11.7828 6.19032 12.1532 6.32911 12.5393 6.32911ZM3.79167 0C2.78605 0 1.82163 0.361432 1.11055 1.00479C0.399478 1.64814 0 2.52072 0 3.43056V12.9306C0 13.8404 0.399478 14.713 1.11055 15.3563C1.82163 15.9997 2.78605 16.3611 3.79167 16.3611H14.2917C15.2973 16.3611 16.2617 15.9997 16.9728 15.3563C17.6839 14.713 18.0833 13.8404 18.0833 12.9306V3.43056C18.0833 2.52072 17.6839 1.64814 16.9728 1.00479C16.2617 0.361432 15.2973 0 14.2917 0H3.79167ZM1.75 3.43056C1.75 2.41089 2.66467 1.58333 3.79167 1.58333H14.2917C15.4187 1.58333 16.3333 2.41089 16.3333 3.43056V12.9306C16.3333 13.1744 16.2808 13.4077 16.1863 13.6209L10.8348 9.0915C10.3485 8.67995 9.70754 8.451 9.04167 8.451C8.37579 8.451 7.7348 8.67995 7.2485 9.0915L1.897 13.6198C1.80111 13.4003 1.75126 13.1666 1.75 12.9306V3.43056ZM9.639 10.2473L14.8948 14.6954C14.7035 14.7489 14.5024 14.7764 14.2917 14.7778H3.79167C3.58089 14.7778 3.37983 14.7503 3.1885 14.6954L8.44317 10.2473C8.60529 10.1101 8.81903 10.0337 9.04108 10.0337C9.26313 10.0337 9.47688 10.1101 9.639 10.2473ZM6.70833 19C6.0714 19.0002 5.44466 18.8553 4.88597 18.5786C4.32727 18.3019 3.85463 17.9023 3.51167 17.4167H14.875C16.0353 17.4167 17.1481 16.9996 17.9686 16.2573C18.7891 15.515 19.25 14.5081 19.25 13.4583V3.17828C19.7867 3.48858 20.2284 3.91621 20.5342 4.42169C20.8401 4.92718 21.0003 5.49423 21 6.0705V13.4594C20.9997 14.9289 20.3542 16.3382 19.2056 17.3773C18.057 18.4163 16.4992 19 14.875 19H6.70833Z" fill="#378FE9"/>
</svg>
