<svg width="20" height="20" viewBox="0 0 20 20" fill="none" xmlns="http://www.w3.org/2000/svg">
<g clip-path="url(#clip0_186_6876)">
<path d="M7.08329 15.8333H6.66663C3.33329 15.8333 1.66663 15 1.66663 10.8333V6.66663C1.66663 3.33329 3.33329 1.66663 6.66663 1.66663H13.3333C16.6666 1.66663 18.3333 3.33329 18.3333 6.66663V10.8333C18.3333 14.1666 16.6666 15.8333 13.3333 15.8333H12.9166C12.6583 15.8333 12.4083 15.9583 12.25 16.1666L11 17.8333C10.45 18.5666 9.54996 18.5666 8.99996 17.8333L7.74996 16.1666C7.61663 15.9833 7.30829 15.8333 7.08329 15.8333Z" stroke="#1E1E1E" stroke-width="1.5" stroke-miterlimit="10" stroke-linecap="round" stroke-linejoin="round"/>
<path d="M5.83337 6.66663H14.1667M5.83337 10.8333H10.8334" stroke="#1E1E1E" stroke-width="1.5" stroke-linecap="round" stroke-linejoin="round"/>
</g>
<defs>
<clipPath id="clip0_186_6876">
<rect width="20" height="20" fill="white"/>
</clipPath>
</defs>
</svg>
