<svg width="20" height="20" viewBox="0 0 20 20" fill="none" xmlns="http://www.w3.org/2000/svg">
<g clip-path="url(#clip0_186_6883)">
<path d="M5 8.33329V6.66663C5 3.90829 5.83333 1.66663 10 1.66663C14.1667 1.66663 15 3.90829 15 6.66663V8.33329M10 15.4166C10.5525 15.4166 11.0824 15.1971 11.4731 14.8064C11.8638 14.4157 12.0833 13.8858 12.0833 13.3333C12.0833 12.7808 11.8638 12.2509 11.4731 11.8602C11.0824 11.4695 10.5525 11.25 10 11.25C9.44747 11.25 8.91756 11.4695 8.52686 11.8602C8.13616 12.2509 7.91667 12.7808 7.91667 13.3333C7.91667 13.8858 8.13616 14.4157 8.52686 14.8064C8.91756 15.1971 9.44747 15.4166 10 15.4166Z" stroke="#1E1E1E" stroke-width="1.5" stroke-linecap="round" stroke-linejoin="round"/>
<path d="M14.1666 18.3334H5.83329C2.49996 18.3334 1.66663 17.5 1.66663 14.1667V12.5C1.66663 9.16671 2.49996 8.33337 5.83329 8.33337H14.1666C17.5 8.33337 18.3333 9.16671 18.3333 12.5V14.1667C18.3333 17.5 17.5 18.3334 14.1666 18.3334Z" stroke="#1E1E1E" stroke-width="1.5" stroke-linecap="round" stroke-linejoin="round"/>
</g>
<defs>
<clipPath id="clip0_186_6883">
<rect width="20" height="20" fill="white"/>
</clipPath>
</defs>
</svg>
