<svg width="20" height="20" viewBox="0 0 20 20" fill="none" xmlns="http://www.w3.org/2000/svg">
<path d="M10 12.5C11.3807 12.5 12.5 11.3807 12.5 10C12.5 8.61929 11.3807 7.5 10 7.5C8.61929 7.5 7.5 8.61929 7.5 10C7.5 11.3807 8.61929 12.5 10 12.5Z" stroke="#1E1E1E" stroke-width="1.25" stroke-miterlimit="10" stroke-linecap="round" stroke-linejoin="round"/>
<path d="M1.66663 10.7332V9.26657C1.66663 8.39991 2.37496 7.68324 3.24996 7.68324C4.75829 7.68324 5.37496 6.61657 4.61663 5.30824C4.18329 4.55824 4.44163 3.58324 5.19996 3.14991L6.64163 2.32491C7.29996 1.93324 8.14996 2.16657 8.54163 2.82491L8.63329 2.98324C9.38329 4.29157 10.6166 4.29157 11.375 2.98324L11.4666 2.82491C11.8583 2.16657 12.7083 1.93324 13.3666 2.32491L14.8083 3.14991C15.5666 3.58324 15.825 4.55824 15.3916 5.30824C14.6333 6.61657 15.25 7.68324 16.7583 7.68324C17.625 7.68324 18.3416 8.39157 18.3416 9.26657V10.7332C18.3416 11.5999 17.6333 12.3166 16.7583 12.3166C15.25 12.3166 14.6333 13.3832 15.3916 14.6916C15.825 15.4499 15.5666 16.4166 14.8083 16.8499L13.3666 17.6749C12.7083 18.0666 11.8583 17.8332 11.4666 17.1749L11.375 17.0166C10.625 15.7082 9.39163 15.7082 8.63329 17.0166L8.54163 17.1749C8.14996 17.8332 7.29996 18.0666 6.64163 17.6749L5.19996 16.8499C4.44163 16.4166 4.18329 15.4416 4.61663 14.6916C5.37496 13.3832 4.75829 12.3166 3.24996 12.3166C2.37496 12.3166 1.66663 11.5999 1.66663 10.7332Z" stroke="#1E1E1E" stroke-width="1.25" stroke-miterlimit="10" stroke-linecap="round" stroke-linejoin="round"/>
</svg>
