<svg width="20" height="19" viewBox="0 0 20 19" fill="none" xmlns="http://www.w3.org/2000/svg">
<path d="M7.87892 2.86697L5.9268 4.81377H2.19046V16.4946H17.8074V4.81377H14.071L12.1189 2.86697H7.87892ZM7.07074 0.920166H12.9271L14.8792 2.86697H18.7834C19.0423 2.86697 19.2906 2.96952 19.4736 3.15207C19.6566 3.33462 19.7595 3.58221 19.7595 3.84037V17.468C19.7595 17.7262 19.6566 17.9737 19.4736 18.1563C19.2906 18.3388 19.0423 18.4414 18.7834 18.4414H1.2144C0.955533 18.4414 0.707269 18.3388 0.524223 18.1563C0.341177 17.9737 0.238342 17.7262 0.238342 17.468V3.84037C0.238342 3.58221 0.341177 3.33462 0.524223 3.15207C0.707269 2.96952 0.955533 2.86697 1.2144 2.86697H5.11863L7.07074 0.920166ZM9.99891 15.5212C8.57515 15.5212 7.20969 14.9571 6.20294 13.9531C5.19619 12.9491 4.6306 11.5874 4.6306 10.1675C4.6306 8.74759 5.19619 7.38585 6.20294 6.38184C7.20969 5.37782 8.57515 4.81377 9.99891 4.81377C11.4227 4.81377 12.7881 5.37782 13.7949 6.38184C14.8016 7.38585 15.3672 8.74759 15.3672 10.1675C15.3672 11.5874 14.8016 12.9491 13.7949 13.9531C12.7881 14.9571 11.4227 15.5212 9.99891 15.5212ZM9.99891 13.5744C10.9049 13.5744 11.7739 13.2154 12.4145 12.5765C13.0552 11.9376 13.4151 11.071 13.4151 10.1675C13.4151 9.26391 13.0552 8.39735 12.4145 7.75843C11.7739 7.11952 10.9049 6.76057 9.99891 6.76057C9.09288 6.76057 8.22396 7.11952 7.58329 7.75843C6.94263 8.39735 6.58271 9.26391 6.58271 10.1675C6.58271 11.071 6.94263 11.9376 7.58329 12.5765C8.22396 13.2154 9.09288 13.5744 9.99891 13.5744Z" fill="#1E1E1E" fill-opacity="0.4"/>
</svg>
