<svg width="20" height="20" viewBox="0 0 20 20" fill="none" xmlns="http://www.w3.org/2000/svg">
<path d="M10.1868 0C15.5786 0 19.9494 4.478 19.9494 10.002C19.9494 15.525 15.5786 20.002 10.1868 20.002C4.7951 20.002 0.424316 15.525 0.424316 10.002C0.424316 4.478 4.7951 0 10.1868 0ZM10.1868 1.5C9.08956 1.48781 8.00082 1.6987 6.98363 2.12047C5.96644 2.54224 5.041 3.16652 4.26087 3.95717C3.48073 4.74781 2.8614 5.68913 2.43872 6.72664C2.01604 7.76415 1.7984 8.87724 1.7984 10.0015C1.7984 11.1258 2.01604 12.2389 2.43872 13.2764C2.8614 14.3139 3.48073 15.2552 4.26087 16.0458C5.041 16.8365 5.96644 17.4608 6.98363 17.8825C8.00082 18.3043 9.08956 18.5152 10.1868 18.503C12.372 18.4787 14.4596 17.5723 15.9965 15.9806C17.5333 14.3889 18.3953 12.2404 18.3953 10.0015C18.3953 7.7626 17.5333 5.61407 15.9965 4.02237C14.4596 2.43066 12.372 1.52428 10.1868 1.5ZM6.73355 12.785C7.14476 13.3203 7.66924 13.753 8.26743 14.0504C8.86563 14.3479 9.52192 14.5023 10.1868 14.502C10.8511 14.5029 11.507 14.3491 12.1047 14.0521C12.7024 13.7552 13.2265 13.3229 13.6372 12.788C13.6968 12.7107 13.7707 12.6462 13.8546 12.5982C13.9385 12.5502 14.0309 12.5195 14.1264 12.5081C14.2219 12.4966 14.3186 12.5045 14.4111 12.5313C14.5036 12.5582 14.59 12.6034 14.6655 12.6645C14.7409 12.7256 14.8039 12.8013 14.8507 12.8872C14.8976 12.9732 14.9275 13.0678 14.9387 13.1657C14.9499 13.2635 14.9422 13.3626 14.916 13.4574C14.8898 13.5522 14.8456 13.6407 14.786 13.718C14.2382 14.4306 13.5396 15.0065 12.7429 15.4022C11.9462 15.7978 11.0722 16.0029 10.1868 16.002C9.30016 16.003 8.42489 15.7973 7.62724 15.4006C6.82959 15.0038 6.13047 14.4264 5.58278 13.712C5.5233 13.6346 5.47929 13.5459 5.45326 13.4511C5.42723 13.3562 5.41969 13.2571 5.43106 13.1593C5.44244 13.0614 5.47251 12.9669 5.51956 12.8809C5.56661 12.795 5.62971 12.7194 5.70527 12.6585C5.78083 12.5976 5.86737 12.5525 5.95994 12.5258C6.05251 12.4991 6.1493 12.4914 6.24478 12.5031C6.34026 12.5147 6.43257 12.5455 6.51644 12.5937C6.6003 12.6419 6.67407 12.7066 6.73355 12.784M7.25867 6.752C7.42173 6.74727 7.58406 6.7761 7.73606 6.83676C7.88806 6.89743 8.02664 6.98871 8.14361 7.1052C8.26057 7.2217 8.35355 7.36104 8.41704 7.51499C8.48053 7.66894 8.51324 7.83437 8.51324 8.0015C8.51324 8.16863 8.48053 8.33406 8.41704 8.48801C8.35355 8.64196 8.26057 8.7813 8.14361 8.89779C8.02664 9.01429 7.88806 9.10557 7.73606 9.16624C7.58406 9.2269 7.42173 9.25573 7.25867 9.251C6.94119 9.2418 6.63972 9.10612 6.41834 8.8728C6.19695 8.63947 6.0731 8.3269 6.0731 8.0015C6.0731 7.6761 6.19695 7.36353 6.41834 7.13021C6.63972 6.89688 6.94119 6.7612 7.25867 6.752ZM13.115 6.752C13.2781 6.74727 13.4404 6.7761 13.5924 6.83676C13.7444 6.89743 13.883 6.98871 13.9999 7.1052C14.1169 7.2217 14.2099 7.36104 14.2734 7.51499C14.3369 7.66894 14.3696 7.83437 14.3696 8.0015C14.3696 8.16863 14.3369 8.33406 14.2734 8.48801C14.2099 8.64196 14.1169 8.7813 13.9999 8.89779C13.883 9.01429 13.7444 9.10557 13.5924 9.16624C13.4404 9.2269 13.2781 9.25573 13.115 9.251C12.7975 9.2418 12.4961 9.10612 12.2747 8.8728C12.0533 8.63947 11.9294 8.3269 11.9294 8.0015C11.9294 7.6761 12.0533 7.36353 12.2747 7.13021C12.4961 6.89688 12.7975 6.7612 13.115 6.752Z" fill="#1E1E1E" fill-opacity="0.4"/>
</svg>
