<svg width="24" height="20" viewBox="0 0 24 20"  className="fitness-svg" fill="none" xmlns="http://www.w3.org/2000/svg">
<path d="M8.66203 4.6265C8.73881 4.47711 8.86 4.3536 9.00988 4.27198C9.15975 4.19036 9.3314 4.15441 9.50255 4.16878C9.6737 4.18315 9.83646 4.24718 9.96972 4.35257C10.103 4.45796 10.2006 4.59984 10.2499 4.75982L12.1999 11.0799L13.807 7.95941C13.8782 7.82103 13.9877 7.70465 14.1231 7.62332C14.2585 7.54198 14.4145 7.4989 14.5736 7.4989C14.7328 7.4989 14.8888 7.54198 15.0242 7.62332C15.1596 7.70465 15.269 7.82103 15.3402 7.95941L16.8156 10.832H21.9992C22.7709 9.28525 23.1624 7.58539 23.1429 5.86645C23.1092 2.63196 20.4397 0 17.1922 0C14.616 0 12.9065 1.53835 12.0001 2.65592C11.0958 1.53679 9.38417 0 6.80792 0C3.56042 0 0.890959 2.63196 0.857209 5.86645C0.843332 6.98338 1.00465 8.09584 1.3356 9.16551H6.32739L8.66203 4.6265Z" fill="#6c757d"/>
<path d="M15.5191 12.0381L14.5714 10.1957L12.7666 13.7046C12.6954 13.843 12.586 13.9593 12.4506 14.0406C12.3152 14.1219 12.1591 14.165 12 14.165C11.9761 14.165 11.9514 14.1639 11.9261 14.1618C11.7545 14.148 11.5912 14.0843 11.4574 13.9789C11.3237 13.8736 11.2256 13.7315 11.1761 13.5713L9.22607 7.25125L7.61893 10.3717C7.54808 10.5093 7.43939 10.6252 7.30493 10.7065C7.17046 10.7877 7.01547 10.8312 6.85714 10.832H2.00089C2.50089 11.8489 3.16643 12.8498 3.9975 13.8348C5.00304 15.0263 6.82607 16.9313 11.0363 19.7096C11.3202 19.8987 11.6563 20 12.0005 20C12.3447 20 12.6809 19.8987 12.9648 19.7096C17.175 16.9313 18.998 15.0263 20.0036 13.8348C20.3657 13.4063 20.7054 12.9603 21.0214 12.4985H16.2857C16.1266 12.4985 15.9706 12.4555 15.8352 12.3742C15.6998 12.2928 15.5903 12.1765 15.5191 12.0381ZM23.1429 10.832H21.9991C21.7142 11.4093 21.3874 11.9662 21.0214 12.4985H23.1429C23.3702 12.4985 23.5882 12.4107 23.7489 12.2545C23.9097 12.0982 24 11.8863 24 11.6653C24 11.4443 23.9097 11.2324 23.7489 11.0761C23.5882 10.9198 23.3702 10.832 23.1429 10.832ZM0.857143 9.16559C0.629814 9.16559 0.411797 9.25338 0.251051 9.40964C0.0903058 9.5659 0 9.77783 0 9.99882C0 10.2198 0.0903058 10.4317 0.251051 10.588C0.411797 10.7443 0.629814 10.832 0.857143 10.832H2.00089C1.73578 10.2938 1.51335 9.73673 1.33554 9.16559H0.857143Z" fill="#6c757d"/>
</svg>
