<svg width="22" height="21"  className="mindset-svg" viewBox="0 0 22 21" fill="none" xmlns="http://www.w3.org/2000/svg">
<path fill-rule="evenodd" clip-rule="evenodd" d="M12.7366 0.000122699C13.6579 -0.00709914 14.5447 0.304738 15.202 0.867033C15.8593 1.42933 16.2332 2.19602 16.2415 2.99845C16.2498 3.80087 15.8918 4.57331 15.2462 5.14581C14.6007 5.71832 13.7204 6.04401 12.7992 6.05123L12.5467 6.70979C13.1438 7.02516 13.662 7.44184 14.0706 7.93508C14.4792 8.42833 14.7697 8.98807 14.925 9.58105H16.4523C16.7183 9.05016 17.186 8.61524 17.7769 8.34943C18.3678 8.08361 19.0457 8.00311 19.6967 8.12145C20.3477 8.2398 20.9321 8.54977 21.3515 8.99926C21.771 9.44874 22 10.0103 22 10.5896C22 11.1688 21.771 11.7304 21.3515 12.1799C20.9321 12.6294 20.3477 12.9393 19.6967 13.0577C19.0457 13.176 18.3678 13.0955 17.7769 12.8297C17.186 12.5639 16.7183 12.129 16.4523 11.5981H14.9239C14.7311 12.3337 14.3307 13.0159 13.759 13.5828L14.5742 14.2928C15.1933 14.0812 15.8771 14.0618 16.5108 14.2377C17.1444 14.4136 17.6891 14.7742 18.0534 15.2589C18.4177 15.7435 18.5793 16.3226 18.511 16.8988C18.4427 17.475 18.1487 18.0131 17.6785 18.4227C17.2082 18.8323 16.5904 19.0884 15.9288 19.1479C15.2673 19.2073 14.6024 19.0666 14.046 18.7493C13.4896 18.432 13.0756 17.9575 12.8736 17.4057C12.6717 16.8538 12.694 16.2581 12.9369 15.7189L11.8555 14.7769C11.2177 15.0091 10.5332 15.1284 9.84194 15.1279C9.04633 15.1279 8.2613 14.9692 7.54702 14.664L6.53851 15.7189C6.92445 16.3484 7.04251 17.0765 6.87181 17.7744C6.70111 18.4724 6.25265 19.0954 5.60567 19.5332C4.95869 19.9711 4.15484 20.1956 3.33616 20.1672C2.51749 20.1388 1.73669 19.8593 1.13174 19.378C0.526783 18.8967 0.13662 18.2447 0.0301908 17.5371C-0.0762386 16.8295 0.107917 16.1119 0.550115 15.5112C0.992314 14.9104 1.66409 14.4651 2.44674 14.254C3.22939 14.0428 4.07252 14.0795 4.82716 14.3574L5.74652 13.3953C5.02258 12.5961 4.62968 11.6075 4.63148 10.5896C4.63148 9.8483 4.83527 9.1494 5.19653 8.53118L4.19149 7.80101C3.59686 8.06053 2.91777 8.13379 2.26842 8.00845C1.61907 7.88312 1.03908 7.56684 0.625998 7.11281C0.212913 6.65878 -0.00806605 6.0947 0.000225095 5.51544C0.00851624 4.93618 0.245572 4.37708 0.671523 3.93216C1.09747 3.48724 1.68634 3.18366 2.33907 3.07246C2.9918 2.96127 3.66859 3.04924 4.2556 3.3216C4.84262 3.59395 5.30405 4.03407 5.56229 4.56792C5.82053 5.10178 5.85983 5.69681 5.67357 6.25294L6.68093 6.9831C7.72696 6.28491 9.03888 5.95966 10.3502 6.07342L10.6027 5.41385C10.0312 5.0267 9.61294 4.49372 9.40627 3.88939C9.1996 3.28507 9.21487 2.6396 9.44996 2.0432C9.68505 1.44681 10.1282 0.929292 10.7175 0.562986C11.3067 0.19668 12.0127 -0.000109683 12.7366 0.000122699ZM3.4736 16.1364C3.16651 16.1364 2.872 16.2427 2.65486 16.4318C2.43772 16.6209 2.31572 16.8775 2.31572 17.1449C2.31572 17.4124 2.43772 17.6689 2.65486 17.8581C2.872 18.0472 3.16651 18.1535 3.4736 18.1535C3.78069 18.1535 4.0752 18.0472 4.29235 17.8581C4.50949 17.6689 4.63148 17.4124 4.63148 17.1449C4.63148 16.8775 4.50949 16.6209 4.29235 16.4318C4.0752 16.2427 3.78069 16.1364 3.4736 16.1364ZM15.6313 16.1364C15.4778 16.1364 15.3305 16.1895 15.222 16.2841C15.1134 16.3787 15.0524 16.5069 15.0524 16.6407C15.0524 16.7744 15.1134 16.9027 15.222 16.9972C15.3305 17.0918 15.4778 17.1449 15.6313 17.1449C15.7849 17.1449 15.9321 17.0918 16.0407 16.9972C16.1493 16.9027 16.2103 16.7744 16.2103 16.6407C16.2103 16.5069 16.1493 16.3787 16.0407 16.2841C15.9321 16.1895 15.7849 16.1364 15.6313 16.1364ZM9.84194 8.06827C9.07422 8.06827 8.33794 8.3339 7.79508 8.80674C7.25222 9.27957 6.94724 9.92088 6.94724 10.5896C6.94724 11.2583 7.25222 11.8996 7.79508 12.3724C8.33794 12.8452 9.07422 13.1109 9.84194 13.1109C10.6097 13.1109 11.3459 12.8452 11.8888 12.3724C12.4317 11.8996 12.7366 11.2583 12.7366 10.5896C12.7366 9.92088 12.4317 9.27957 11.8888 8.80674C11.3459 8.3339 10.6097 8.06827 9.84194 8.06827ZM19.105 10.0853C18.9514 10.0853 18.8042 10.1384 18.6956 10.233C18.587 10.3276 18.526 10.4558 18.526 10.5896C18.526 10.7233 18.587 10.8516 18.6956 10.9461C18.8042 11.0407 18.9514 11.0938 19.105 11.0938C19.2585 11.0938 19.4058 11.0407 19.5143 10.9461C19.6229 10.8516 19.6839 10.7233 19.6839 10.5896C19.6839 10.4558 19.6229 10.3276 19.5143 10.233C19.4058 10.1384 19.2585 10.0853 19.105 10.0853ZM2.89466 5.04271C2.74112 5.04271 2.59386 5.09584 2.48529 5.19041C2.37672 5.28498 2.31572 5.41324 2.31572 5.54697C2.31572 5.68071 2.37672 5.80897 2.48529 5.90354C2.59386 5.9981 2.74112 6.05123 2.89466 6.05123C3.04821 6.05123 3.19546 5.9981 3.30404 5.90354C3.41261 5.80897 3.4736 5.68071 3.4736 5.54697C3.4736 5.41324 3.41261 5.28498 3.30404 5.19041C3.19546 5.09584 3.04821 5.04271 2.89466 5.04271ZM12.7366 2.01716C12.4295 2.01716 12.135 2.12341 11.9179 2.31255C11.7007 2.50168 11.5788 2.7582 11.5788 3.02568C11.5788 3.29315 11.7007 3.54967 11.9179 3.73881C12.135 3.92794 12.4295 4.0342 12.7366 4.0342C13.0437 4.0342 13.3382 3.92794 13.5554 3.73881C13.7725 3.54967 13.8945 3.29315 13.8945 3.02568C13.8945 2.7582 13.7725 2.50168 13.5554 2.31255C13.3382 2.12341 13.0437 2.01716 12.7366 2.01716Z" fill="#6c757d"/>
</svg>
